<svg xmlns="http://www.w3.org/2000/svg" viewBox="-108 -108 216 216" width="216" height="216">
  <circle r="108" fill="#ff5a2a" opacity="0.12" />
  <circle r="61.2" fill="#ffb877" opacity="0.26" />
  <path d="M -16.2 0.72 L -81.95 -18.134 L -93.6 0.72 L -84.315 17.703 L -65.468 26.917 Z" fill="#b8301a" />
  <path d="M -16.2 0.72 Q -46.098 -19.088 -81.95 -18.134 Q -52.052 1.675 -16.2 0.72 Z" fill="#e0481c" />
  <path d="M -16.2 0.72 Q -54.9 -8.64 -93.6 0.72 Q -54.9 10.08 -16.2 0.72 Z" fill="#ff6a2a" />
  <path d="M -16.2 0.72 Q -52.348 0.828 -84.315 17.703 Q -48.167 17.595 -16.2 0.72 Z" fill="#e0481c" />
  <path d="M -16.2 0.72 Q -44.214 7.461 -65.468 26.917 Q -37.454 20.175 -16.2 0.72 Z" fill="#ff6a2a" />
  <path d="M -16.2 0.72 Q -34.437 -10.127 -55.65 -10.592 Q -37.414 0.255 -16.2 0.72 Z" fill="#ffc24a" opacity="0.8" />
  <path d="M -16.2 0.72 Q -39.42 -3.96 -62.64 0.72 Q -39.42 5.4 -16.2 0.72 Z" fill="#ffc24a" opacity="0.8" />
  <path d="M 6.48 4.32 L 13.965 39.533 L -5.887 53.922 L -30.755 51.979 L -44.027 33.48 L -40.318 12.572 Z" fill="#c8361f" />
  <path d="M 6.48 4.32 Q 2.475 23.573 13.965 39.533 Q 17.969 20.28 6.48 4.32 Z" fill="#e0481c" />
  <path d="M 6.48 4.32 Q -8.785 26.856 -5.887 53.922 Q 9.378 31.385 6.48 4.32 Z" fill="#ff7a2a" />
  <path d="M 6.48 4.32 Q -19.797 22.165 -30.755 51.979 Q -4.478 34.134 6.48 4.32 Z" fill="#e0481c" />
  <path d="M 6.48 4.32 Q -23.273 11.106 -44.027 33.48 Q -14.273 26.694 6.48 4.32 Z" fill="#ff7a2a" />
  <path d="M 6.48 4.32 Q -18.169 1.355 -40.318 12.572 Q -15.669 15.536 6.48 4.32 Z" fill="#e0481c" />
  <path d="M 6.48 4.32 Q -9.276 15.803 -16.606 33.869 Q -0.85 22.386 6.48 4.32 Z" fill="#ffc24a" opacity="0.7" />
  <path d="M 6.48 4.32 Q -11.652 9.073 -24.834 22.399 Q -6.702 17.646 6.48 4.32 Z" fill="#ffc24a" opacity="0.7" />
  <path d="M 6.48 4.32 Q -8.715 2.978 -22.535 9.436 Q -7.34 10.778 6.48 4.32 Z" fill="#ffc24a" opacity="0.7" />
  <path d="M 6.48 -4.32 L 14.339 -41.294 L -6.584 -56.716 L -32.972 -54.816 L -47.144 -35.28 L -43.154 -13.072 Z" fill="#d63a1f" />
  <path d="M 6.48 -4.32 Q 18.156 -21.16 14.339 -41.294 Q 2.663 -24.454 6.48 -4.32 Z" fill="#ff6a2a" />
  <path d="M 6.48 -4.32 Q 9.03 -32.782 -6.584 -56.716 Q -9.134 -28.254 6.48 -4.32 Z" fill="#ff8a3d" />
  <path d="M 6.48 -4.32 Q -5.586 -35.552 -32.972 -54.816 Q -20.905 -23.584 6.48 -4.32 Z" fill="#ff6a2a" />
  <path d="M 6.48 -4.32 Q -15.832 -27.594 -47.144 -35.28 Q -24.832 -12.006 6.48 -4.32 Z" fill="#ff8a3d" />
  <path d="M 6.48 -4.32 Q -17.087 -15.787 -43.154 -13.072 Q -19.587 -1.605 6.48 -4.32 Z" fill="#ff6a2a" />
  <path d="M 6.48 -4.32 Q 7.425 -21.808 -1.62 -36.806 Q -2.565 -19.317 6.48 -4.32 Z" fill="#ffd24a" opacity="0.85" />
  <path d="M 6.48 -4.32 Q -1.537 -23.265 -17.98 -35.627 Q -9.963 -16.682 6.48 -4.32 Z" fill="#ffd24a" opacity="0.85" />
  <path d="M 6.48 -4.32 Q -7.669 -18.204 -26.767 -23.515 Q -12.619 -9.631 6.48 -4.32 Z" fill="#ffd24a" opacity="0.85" />
  <path d="M -18 1.8 Q -1.8 21.6 19.8 12.24 Q 35.28 4.32 25.92 -14.4 Q 14.4 -23.76 -4.32 -14.4 Q -18 -6.48 -18 1.8 Z" fill="#ff7a2a" />
  <path d="M -10.8 4.32 Q 1.8 16.2 18 8.64 Q 7.2 11.52 -3.6 3.6 Z" fill="#ffc06a" opacity="0.85" />
  <path d="M 16.2 -11.52 Q 28.8 -18 33.12 -23.76 L 37.8 -18 Q 28.08 -10.08 19.8 -5.76 Z" fill="#ff8a3d" />
  <circle cx="36" cy="-25.92" r="10.8" fill="#ff8a3d" />
  <circle cx="33.12" cy="-28.8" r="5.04" fill="#ffd24a" opacity="0.7" />
  <path d="M 43.92 -29.52 L 57.6 -36 L 43.2 -22.32 Z" fill="#ffce3a" />
  <path d="M 43.92 -29.52 L 57.6 -36 L 46.8 -28.08 Z" fill="#ffec80" />
  <circle cx="38.16" cy="-28.08" r="2.7" fill="#1a0a00" />
  <circle cx="37.44" cy="-28.8" r="1.08" fill="#ffffff" />
  <path d="M 32.4 -34.2 Q 28.08 -52.2 22.32 -58.32 Q 29.52 -43.2 36.72 -36 Z" fill="#ff5a2a" />
  <path d="M 36.72 -35.28 Q 36 -54 33.12 -61.92 Q 40.32 -47.52 41.76 -36 Z" fill="#ff7a2a" />
  <path d="M 40.32 -33.12 Q 44.64 -46.8 47.52 -52.56 Q 46.8 -38.88 43.92 -33.12 Z" fill="#ffae3d" />
</svg>
